<svg preserveAspectRatio="xMidYMid meet" viewBox="6.099990000000001 0 125.69999999999999 122.29722921914357" xmlns="http://www.w3.org/2000/svg" version="1.0" style="max-height: 500px" width="125.69999999999999" height="122.29722921914357">  <g stroke="none" fill="#026100" transform="translate(0.000000,119.000000) scale(0.100000,-0.100000)"> <path d="M616 1119 c-26 -31 -39 -96 -14 -71 7 7 17 12 23 12 5 0 -2 -10 -17 -23 -36 -29 -52 -95 -28 -119 9 -10 24 -18 34 -18 9 0 14 -4 11 -10 -13 -20 -55 -11 -67 15 -14 30 -29 32 -53 5 -15 -17 -17 -31 -12 -94 7 -73 6 -77 -38 -174 -25 -55 -45 -104 -45 -109 0 -5 7 -18 15 -29 14 -18 14 -17 9 11 -8 44 63 205 90 205 18 0 17 -3 -7 -28 -32 -33 -67 -119 -66 -160 0 -38 42 -165 56 -169 6 -2 25 19 42 48 34 54 53 62 27 10 -19 -37 -20 -41 -2 -41 8 0 17 20 24 53 l11 52 -6 -52 c-3 -34 -1 -53 6 -53 5 0 11 27 13 62 4 82 23 87 32 8 4 -34 11 -58 17 -55 15 10 11 -5 -12 -42 -16 -26 -24 -31 -34 -23 -10 8 -15 6 -20 -9 -6 -20 -8 -20 -36 -5 l-31 15 3 -48 c3 -43 1 -48 -19 -51 -26 -4 -28 -15 -7 -32 9 -7 13 -15 11 -18 -3 -2 -18 6 -33 19 -25 21 -28 29 -22 62 l6 37 -52 0 c-39 0 -56 5 -70 20 -18 20 -18 21 8 48 21 22 27 38 27 73 l-1 44 -30 -34 c-25 -27 -30 -40 -27 -67 2 -19 3 -34 1 -34 -9 0 -33 64 -26 69 5 3 1 14 -9 23 -17 17 -18 17 -18 1 0 -14 -3 -13 -20 5 -12 12 -28 22 -38 22 -14 0 -14 -3 4 -20 11 -12 30 -22 42 -23 12 -1 22 -6 22 -13 0 -6 18 -39 41 -74 l40 -62 -34 21 c-24 14 -51 21 -87 21 -52 0 -53 0 -35 -20 26 -29 76 -43 110 -30 30 12 53 0 40 -20 -4 -7 -18 -9 -36 -5 -20 5 -39 0 -63 -14 -41 -25 -71 -28 -62 -5 3 9 6 18 6 20 0 10 29 3 32 -8 3 -9 6 -9 12 0 9 15 -17 27 -39 18 -24 -9 -29 -36 -12 -53 15 -15 19 -14 55 10 21 15 47 27 58 26 16 0 15 -2 -6 -10 -24 -10 -24 -11 -6 -25 11 -8 27 -14 35 -14 11 1 8 5 -8 14 l-24 13 32 11 32 11 -6 -39 c-3 -23 -1 -41 5 -45 8 -5 8 -11 -1 -21 -10 -12 -3 -14 40 -14 29 0 61 5 72 11 16 8 30 7 60 -5 22 -9 50 -16 62 -16 20 0 23 -4 19 -35 -2 -19 -1 -35 3 -35 4 0 24 13 44 29 l37 30 33 -31 c36 -33 44 -32 44 10 0 25 6 30 46 41 50 13 55 14 150 5 55 -5 63 -4 58 10 -3 8 -2 18 3 21 5 3 6 21 3 40 -6 36 0 41 32 28 15 -5 14 -8 -6 -20 -24 -14 -24 -14 6 -8 16 4 32 8 33 10 9 9 -11 24 -38 30 -17 4 -31 11 -31 16 -4 29 -2 37 20 66 18 24 30 30 50 28 29 -4 81 28 68 42 -5 4 -26 -3 -48 -15 -21 -12 -39 -21 -39 -18 0 2 8 21 18 43 12 27 22 37 35 35 19 -4 47 14 47 29 0 14 -22 10 -42 -8 -17 -15 -18 -15 -19 13 0 24 -2 22 -13 -16 -7 -25 -20 -58 -29 -75 l-16 -30 -1 42 c0 23 -5 45 -11 49 -9 5 -10 -1 -5 -22 5 -23 4 -26 -4 -11 -6 9 -9 26 -5 36 3 10 -1 24 -9 30 -13 11 -16 8 -22 -14 -6 -26 7 -64 38 -107 21 -29 -6 -48 -68 -48 l-54 0 6 -38 c4 -28 2 -41 -10 -51 -28 -23 -18 -31 37 -30 43 0 48 2 28 10 -13 5 -33 7 -44 3 -14 -4 -18 -2 -15 7 8 24 64 23 87 -2 12 -13 18 -26 14 -30 -5 -4 -39 -9 -78 -12 -38 -3 -77 -7 -85 -9 -8 -2 -15 2 -15 7 0 6 10 10 23 10 12 -1 22 3 22 7 0 4 -5 8 -12 8 -6 0 -4 7 5 18 22 24 21 29 -7 36 -21 5 -23 10 -18 51 5 50 3 51 -37 30 -27 -14 -29 -13 -34 7 -5 18 -8 19 -21 8 -10 -8 -16 -9 -16 -2 0 6 -13 26 -29 45 -27 30 -31 44 -41 143 -11 119 -19 164 -27 164 -3 0 -15 -10 -28 -22 -12 -12 -32 -22 -44 -23 l-21 -2 22 24 c30 32 79 56 91 44 5 -5 16 -63 24 -128 20 -168 23 -183 32 -183 4 0 4 26 -1 58 -5 31 -7 72 -4 91 6 41 -10 127 -31 160 -13 20 -13 25 -2 32 8 5 25 8 39 5 23 -4 24 -3 6 10 -25 18 -19 23 21 17 28 -4 32 -10 38 -43 3 -20 28 -88 55 -151 52 -119 62 -163 14 -60 -15 34 -29 59 -31 57 -2 -2 10 -35 28 -72 17 -38 33 -63 36 -56 3 6 9 10 14 7 5 -4 6 2 2 12 -6 16 -5 16 10 4 9 -7 17 -11 17 -9 0 3 -22 48 -50 99 -52 100 -104 228 -96 237 3 2 10 -7 15 -21 14 -37 141 -270 154 -284 7 -7 17 -9 26 -4 11 7 8 17 -16 52 -16 24 -63 105 -103 179 -40 74 -75 139 -78 145 -4 5 -5 21 -4 35 2 17 -6 34 -22 49 -23 22 -25 28 -19 87 6 60 5 64 -25 93 -41 42 -81 42 -116 0z m102 -45 c11 -19 5 -49 -16 -81 -11 -19 -18 -21 -34 -12 -18 10 -18 9 -8 -10 6 -12 8 -25 5 -30 -3 -5 1 -12 7 -14 7 -3 -3 -3 -22 0 -43 7 -59 20 -37 29 9 3 15 10 12 14 -3 5 -1 11 5 15 5 3 8 16 4 29 -4 17 1 25 21 34 14 7 28 19 31 27 8 20 21 19 32 -1z m-18 -174 c0 -5 -24 -22 -52 -36 -29 -15 -68 -42 -85 -61 -27 -28 -33 -31 -33 -16 0 30 21 50 90 88 70 37 80 40 80 25z m25 -67 c-3 -33 -15 -48 -84 -113 -45 -41 -81 -81 -81 -87 0 -7 -18 -25 -40 -39 -42 -28 -54 -42 -21 -24 28 14 36 12 21 -5 -7 -8 -9 -15 -5 -15 5 0 0 -9 -10 -20 -28 -31 -37 -24 -31 25 10 70 20 88 77 138 62 54 78 53 28 -1 -26 -29 -23 -27 14 8 50 47 94 106 48 66 -20 -18 -30 -11 -13 10 4 5 -7 -7 -25 -26 -18 -19 -32 -30 -33 -24 0 13 53 70 100 108 46 37 2 16 -62 -30 -27 -19 -48 -30 -48 -25 0 5 7 14 15 21 25 21 139 79 146 74 4 -2 6 -21 4 -41z m65 -15 c0 -12 -8 -22 -21 -25 -16 -5 -18 -8 -7 -15 11 -8 11 -9 0 -6 -8 2 -12 6 -11 8 1 3 -3 14 -9 26 -9 16 -8 21 3 21 8 0 11 -5 8 -10 -3 -6 -1 -7 5 -3 7 4 12 14 12 22 0 8 5 12 10 9 6 -3 10 -15 10 -27z m-196 -308 c-37 -37 -72 -77 -79 -89 -10 -19 -25 -19 -25 0 0 4 21 33 47 66 l46 58 -51 -50 c-33 -31 -52 -43 -52 -34 0 9 39 49 88 89 79 66 87 70 90 50 3 -17 -14 -40 -64 -90z m-30 88 c-5 -8 -1 -9 12 -5 12 5 8 -2 -11 -18 -16 -14 -34 -25 -40 -25 -5 0 1 9 15 20 21 17 22 19 5 14 -20 -6 -20 -5 -1 10 23 19 30 20 20 4z m106 -90 c0 -49 -5 -47 -14 5 -4 23 -3 37 4 37 5 0 10 -19 10 -42z m60 -153 c27 -44 35 -96 21 -126 -12 -23 -11 -23 3 -5 9 11 16 34 16 52 0 18 5 36 10 39 16 10 12 -62 -5 -95 -9 -17 -12 -30 -8 -30 5 0 1 -5 -7 -10 -9 -6 -10 -10 -3 -10 6 0 19 -3 29 -7 13 -5 15 -3 9 7 -6 10 -4 12 9 7 9 -4 15 -3 12 2 -9 14 38 49 57 42 16 -6 16 -9 -7 -30 -13 -12 -41 -28 -61 -35 l-37 -13 34 -8 33 -8 -28 -4 c-26 -4 -64 14 -52 25 2 3 -2 10 -11 16 -16 12 -20 39 -9 72 4 13 -1 28 -14 45 -21 24 -21 24 -37 4 -10 -13 -14 -32 -10 -55 5 -32 4 -34 -9 -16 -22 29 -18 92 7 137 12 22 25 39 29 39 4 0 17 -16 29 -35z m-94 -81 c0 -19 11 -48 23 -65 13 -17 21 -32 19 -33 -13 -12 -50 -26 -65 -26 -11 0 -39 14 -62 32 -40 29 -42 32 -22 39 16 6 27 2 46 -17 23 -23 53 -25 39 -3 -3 5 -9 7 -13 4 -14 -8 -42 31 -48 69 -5 35 -5 36 18 28 16 -6 27 -21 32 -45 5 -19 18 -44 29 -54 21 -18 21 -18 6 7 -20 31 -32 86 -23 100 11 17 19 2 21 -36z m219 4 c-8 -36 -41 -88 -56 -88 -5 0 -11 0 -14 0 -3 0 -5 3 -4 8 1 4 4 6 8 5 4 -1 7 6 7 15 0 54 6 70 27 80 35 17 39 14 32 -20z m-134 -48 c-13 -9 -20 -39 -10 -45 11 -7 2 -25 -12 -25 -6 0 -9 10 -8 23 1 12 -2 30 -6 40 -4 11 -2 30 5 45 l13 27 12 -30 c7 -16 10 -32 6 -35z m-293 38 c9 -9 12 -9 12 0 0 23 16 12 18 -13 1 -21 -3 -25 -24 -25 -21 0 -25 4 -21 20 3 11 1 18 -4 14 -5 -3 -9 0 -9 5 0 14 13 14 28 -1z m542 0 c0 -9 3 -9 9 1 11 17 39 8 48 -14 3 -9 1 -21 -6 -28 -8 -8 -11 -4 -11 16 0 15 -4 27 -9 27 -5 0 -7 -9 -4 -20 4 -17 0 -20 -23 -20 -23 0 -26 2 -14 10 8 5 10 10 4 10 -6 0 -11 7 -11 15 0 8 4 15 9 15 4 0 8 -6 8 -12z m-570 -29 c0 -13 7 -19 24 -19 32 0 56 -10 56 -22 0 -6 -12 -8 -30 -4 -21 4 -29 2 -25 -5 4 -6 21 -9 38 -7 18 2 32 -2 34 -9 4 -10 -13 -13 -61 -13 -69 0 -84 12 -51 40 11 9 13 16 5 24 -13 13 -13 49 0 41 6 -3 10 -15 10 -26z m165 -81 c24 -11 25 -13 8 -19 -21 -7 -65 10 -57 22 7 12 18 11 49 -3z m127 -23 c11 -15 10 -27 -2 -20 -6 4 -9 1 -8 -6 4 -15 -45 -43 -50 -28 -2 5 3 21 12 34 9 14 12 25 7 25 -5 0 -11 -5 -13 -11 -2 -6 -17 -9 -33 -7 l-30 4 35 11 c41 13 72 12 82 -2z m67 -19 c7 -9 10 -23 7 -32 -6 -15 -8 -15 -29 -1 -12 8 -21 22 -21 31 1 9 -2 16 -8 16 -5 0 -6 5 -3 10 7 12 35 -1 54 -24z"/> <path d="M780 1070 c8 -5 24 -10 35 -10 18 -1 18 -2 -2 -10 -14 -6 -23 -18 -23 -30 0 -17 2 -19 14 -8 8 7 12 16 10 20 -3 4 6 10 20 14 41 10 152 -50 221 -120 76 -77 93 -108 77 -138 -7 -13 -13 -35 -14 -50 -2 -25 -3 -26 -20 -11 -10 9 -21 13 -26 9 -4 -4 5 -18 19 -29 15 -12 29 -29 32 -37 6 -15 11 19 8 51 -1 9 5 22 14 29 35 29 6 98 -80 183 -52 52 -111 90 -183 117 -58 21 -124 35 -102 20z"/> <path d="M482 1027 c-81 -41 -150 -102 -196 -171 -38 -58 -42 -75 -25 -108 9 -17 13 -18 20 -7 12 20 12 -6 0 -30 -6 -10 -6 -23 0 -32 7 -11 9 -11 9 4 0 9 6 17 14 17 17 0 41 28 32 37 -3 3 -16 -2 -28 -13 -12 -10 -18 -13 -14 -6 4 7 0 29 -9 49 -17 35 -17 38 1 70 10 19 37 55 60 80 l43 46 25 -29 25 -29 -27 -28 c-19 -20 -28 -24 -33 -15 -5 8 -1 15 10 20 29 10 32 24 11 43 -21 19 -28 7 -8 -13 17 -17 2 -27 -17 -12 -12 10 -19 10 -27 2 -9 -9 -6 -18 10 -35 12 -13 19 -26 16 -30 -4 -3 -14 3 -24 15 -11 14 -21 18 -30 13 -10 -6 -8 -10 8 -16 25 -9 30 -29 7 -29 -8 0 -15 5 -15 10 0 6 -4 10 -10 10 -19 0 -10 -32 10 -37 23 -6 24 -8 10 -34 -21 -37 -2 -18 23 24 33 55 104 121 162 149 25 12 40 25 34 29 -6 3 -12 18 -12 33 -2 20 -6 25 -22 21 -11 -3 -2 4 20 14 22 11 33 20 25 20 -8 0 -43 -14 -78 -32z m24 -15 c6 -4 16 -16 22 -27 9 -18 4 -23 -40 -48 -27 -15 -47 -23 -43 -17 3 5 1 10 -5 10 -6 0 -9 4 -5 9 3 5 -5 13 -17 17 -21 6 -21 7 -2 21 39 30 52 33 58 17 5 -12 1 -14 -15 -9 -19 6 -20 5 -9 -14 6 -12 8 -26 5 -31 -3 -6 1 -7 10 -4 9 4 14 13 11 21 -4 11 -1 13 15 8 20 -7 20 -6 4 24 -15 30 -11 38 11 23z"/> <path d="M834 1017 c-13 -15 -32 -27 -45 -28 -14 0 3 -9 36 -19 77 -24 159 -82 202 -140 55 -75 66 -87 44 -48 l-20 38 24 16 c22 14 27 42 5 29 -5 -3 -10 3 -12 12 -3 16 -5 16 -25 -4 -18 -18 -23 -20 -34 -7 -9 11 -7 14 10 14 28 0 38 27 18 47 -13 13 -19 14 -31 3 -9 -7 -16 -19 -16 -27 0 -8 -5 -11 -11 -8 -7 5 -5 15 5 31 22 32 20 41 -4 19 -11 -10 -17 -22 -14 -26 3 -5 -2 -6 -10 -3 -14 5 -13 10 5 35 11 16 17 29 12 29 -12 0 -35 -16 -34 -24 3 -20 -1 -25 -14 -20 -12 5 -11 9 5 27 11 11 20 24 20 29 0 10 -20 11 -20 1 0 -5 -7 -16 -14 -25 -12 -17 -16 -17 -55 -1 -27 10 -38 20 -32 26 6 6 15 4 26 -7 9 -9 25 -16 36 -16 16 0 19 4 14 21 -6 16 -4 20 6 14 11 -6 11 -5 2 5 -14 16 -34 4 -26 -15 4 -11 1 -13 -10 -9 -9 3 -17 18 -19 32 l-3 27 -21 -28z"/> <path d="M1571 966 c-33 -18 -50 -53 -51 -104 0 -35 6 -49 29 -73 42 -41 107 -41 153 0 29 26 33 35 33 81 0 46 -4 55 -33 81 -36 32 -89 38 -131 15z m83 -32 c8 -3 20 -21 26 -40 17 -50 -4 -88 -50 -92 -40 -4 -60 16 -60 63 0 56 37 87 84 69z"/> <path d="M1776 972 c-3 -6 -2 -13 4 -17 14 -9 13 -168 -2 -183 -9 -9 -3 -12 29 -12 l40 0 -4 53 -5 52 26 -40 c14 -22 26 -46 26 -52 0 -13 61 -19 72 -8 3 3 -10 22 -29 41 l-34 37 20 19 c26 24 27 70 2 92 -23 21 -135 34 -145 18z m98 -38 c34 -13 14 -64 -25 -64 -5 0 -9 16 -9 35 0 35 5 40 34 29z"/> <path d="M1980 971 c0 -6 5 -13 10 -16 13 -8 13 -151 0 -176 -10 -17 -7 -19 27 -19 l38 0 0 110 0 110 -37 0 c-21 0 -38 -4 -38 -9z"/> <path d="M2100 971 c0 -6 5 -13 10 -16 13 -8 13 -151 0 -176 -10 -18 -7 -19 65 -19 53 0 75 4 75 13 0 6 3 23 7 36 6 24 6 24 -18 8 -13 -9 -36 -17 -51 -17 -24 0 -28 4 -28 30 0 22 5 30 18 30 10 0 23 -5 30 -12 14 -14 19 -10 24 22 3 23 0 25 -34 22 -35 -3 -38 -1 -38 22 0 22 4 26 29 26 16 0 37 -7 45 -16 15 -14 16 -12 16 20 l0 36 -75 0 c-41 0 -75 -4 -75 -9z"/> <path d="M2290 971 c0 -6 5 -13 10 -16 6 -3 10 -42 10 -85 0 -43 -4 -82 -10 -85 -22 -14 -8 -25 30 -25 37 0 40 2 30 19 -5 11 -10 44 -10 73 l0 53 38 -70 c36 -66 41 -70 76 -73 35 -3 37 -2 27 17 -14 25 -14 168 -1 176 19 12 -1 25 -37 25 -30 0 -34 -3 -27 -17 4 -10 9 -43 11 -73 l4 -55 -41 73 c-39 67 -44 72 -76 72 -19 0 -34 -4 -34 -9z"/> <path d="M2530 966 c0 -6 -3 -22 -7 -35 -6 -24 -6 -24 18 -8 41 30 47 23 43 -54 -2 -40 -6 -80 -9 -90 -6 -17 -1 -19 35 -19 37 0 41 2 34 18 -4 9 -10 50 -12 90 -3 59 -1 72 11 72 9 0 23 -7 32 -16 20 -21 24 -17 18 22 l-5 31 -79 0 c-51 0 -79 -4 -79 -11z"/> <path d="M230 702 c0 -11 7 -25 15 -32 18 -15 20 -35 3 -24 -7 4 -8 3 -4 -5 4 -6 12 -8 18 -5 7 4 8 2 4 -5 -4 -6 -3 -17 2 -24 5 -7 6 -34 2 -62 -4 -27 -8 -44 -9 -36 0 8 -11 26 -23 39 -13 14 -17 22 -9 17 9 -5 12 -4 7 3 -10 17 -36 3 -36 -20 0 -19 42 -69 57 -67 12 0 73 99 62 99 -5 0 -9 -5 -9 -11 0 -5 -5 -7 -12 -3 -6 4 -8 3 -5 -2 3 -6 2 -16 -4 -24 -6 -11 -9 -8 -9 12 0 17 7 31 20 38 11 6 20 18 20 27 0 14 -2 14 -20 -2 -19 -18 -20 -17 -20 2 0 11 10 25 25 31 14 6 25 16 25 22 0 15 -16 12 -30 -5 -18 -21 -29 -19 -36 10 -3 13 -12 29 -20 36 -11 9 -14 7 -14 -9z"/> <path d="M718 705 c5 -11 22 -76 37 -144 15 -69 30 -131 33 -140 3 -8 1 -12 -5 -8 -6 4 -16 37 -23 74 -8 38 -15 62 -18 55 -2 -7 1 -42 8 -78 l12 -65 32 6 c25 5 28 4 16 -5 -13 -10 -12 -11 3 -6 10 3 24 6 30 7 7 0 3 4 -8 9 -16 7 -12 9 20 10 22 1 32 4 23 7 -17 4 -68 144 -84 230 -3 18 -10 35 -14 38 -10 6 16 -110 44 -197 22 -66 22 -67 2 -72 -11 -3 -21 -4 -23 -2 -1 1 -16 63 -33 137 -17 74 -38 141 -46 149 -15 14 -15 13 -6 -5z"/> <path d="M1150 695 c-7 -14 -11 -27 -8 -30 8 -8 38 24 38 41 0 22 -15 17 -30 -11z"/> <path d="M1664 681 c-93 -56 -50 -201 59 -201 51 0 63 7 69 43 6 30 -3 35 -22 12 -15 -18 -71 -20 -88 -3 -7 7 -12 31 -12 53 0 66 47 95 98 59 21 -15 22 -14 22 14 0 46 -68 58 -126 23z"/> <path d="M1835 591 l0 -111 32 0 32 0 -6 50 c-3 28 -3 50 0 50 4 0 18 -22 31 -49 l25 -49 71 0 c68 -1 70 0 70 24 0 21 4 24 40 24 36 0 40 -2 40 -25 0 -22 4 -25 35 -25 40 0 41 2 20 33 -20 31 -55 135 -55 164 0 20 -5 23 -41 23 -32 0 -40 -3 -36 -14 7 -17 -37 -154 -58 -182 -12 -18 -15 -17 -50 20 l-36 39 20 19 c12 10 21 31 21 47 0 42 -32 64 -98 69 l-57 4 0 -111z m103 38 c3 -22 -2 -27 -22 -31 -24 -5 -26 -2 -26 29 0 30 3 34 23 31 15 -2 23 -11 25 -29z m202 -11 c0 -7 3 -23 6 -35 5 -19 2 -23 -16 -23 -18 0 -21 4 -16 23 3 12 6 28 6 35 0 6 5 12 10 12 6 0 10 -6 10 -12z"/> <path d="M2265 590 l0 -110 38 0 c34 0 37 2 27 19 -5 11 -10 31 -10 45 0 21 5 26 25 26 14 0 25 -5 25 -11 0 -5 5 -7 10 -4 6 3 10 17 10 31 0 21 -5 24 -35 24 -31 0 -35 3 -35 25 0 30 32 34 69 8 24 -16 24 -16 18 8 -4 13 -7 30 -7 37 0 8 -20 12 -67 12 l-68 0 0 -110z"/> <path d="M2430 665 c0 -33 1 -35 16 -21 34 34 44 20 44 -58 0 -41 -4 -78 -10 -81 -23 -14 -7 -25 37 -25 37 0 44 3 35 12 -7 7 -12 43 -12 90 0 83 7 93 43 61 18 -17 18 -16 15 17 l-3 35 -82 3 -83 3 0 -36z"/> <path d="M1080 670 c0 -5 11 -17 25 -26 14 -9 25 -26 25 -38 -1 -19 -2 -19 -11 -3 -5 9 -16 17 -22 17 -20 0 -15 -42 9 -78 l22 -33 10 30 c6 18 7 33 2 36 -11 7 -2 34 18 58 10 11 11 17 4 17 -7 0 -12 -5 -12 -10 0 -6 -12 1 -27 15 -29 26 -43 31 -43 15z"/> <path d="M217 612 c4 -18 43 -49 43 -34 0 12 -30 52 -40 52 -4 0 -6 -8 -3 -18z"/> <path d="M1166 611 c-11 -12 -16 -24 -12 -28 9 -9 39 22 34 37 -2 7 -10 4 -22 -9z"/> <path d="M1166 544 c-25 -26 -35 -64 -17 -64 13 0 61 59 61 76 0 21 -14 17 -44 -12z"/> <path d="M315 507 c-21 -39 -14 -61 11 -35 9 9 14 27 12 44 l-3 28 -20 -37z"/> <path d="M1060 513 c0 -24 26 -60 36 -50 10 10 -8 59 -23 65 -8 2 -13 -5 -13 -15z"/> <path d="M630 442 c0 -35 4 -62 10 -62 6 0 8 21 4 58 -9 77 -14 78 -14 4z"/> <path d="M1346 425 c-16 -12 -17 -16 -4 -29 12 -11 22 -12 56 -3 48 13 55 27 14 27 -15 0 -32 4 -37 9 -6 6 -17 4 -29 -4z"/> <path d="M1562 431 c-20 -12 -10 -46 13 -46 14 0 20 7 20 24 0 27 -13 35 -33 22z"/> <path d="M2592 431 c-20 -12 -10 -46 13 -46 14 0 20 7 20 24 0 27 -13 35 -33 22z"/> <path d="M2805 430 c-3 -6 -19 -10 -36 -10 -16 0 -29 -4 -29 -10 0 -5 10 -10 23 -10 12 0 28 -4 36 -9 13 -8 51 6 51 19 0 12 -39 29 -45 20z"/> <path d="M1507 424 c-14 -14 -7 -35 11 -32 9 2 17 10 17 17 0 16 -18 25 -28 15z"/> <path d="M2654 419 c-10 -17 13 -36 27 -22 12 12 4 33 -11 33 -5 0 -12 -5 -16 -11z"/> <path d="M1620 410 c0 -7 163 -10 470 -10 307 0 470 3 470 10 0 7 -163 10 -470 10 -307 0 -470 -3 -470 -10z"/> <path d="M230 381 c0 -13 24 -30 46 -34 10 -1 26 -7 34 -11 8 -5 5 2 -8 16 -12 13 -20 26 -18 29 2 2 -9 5 -25 6 -16 1 -29 -2 -29 -6z"/> <path d="M1412 315 c12 -26 28 -34 28 -12 0 8 4 7 10 -3 9 -13 11 -13 20 0 5 8 10 22 10 30 0 12 -2 12 -9 1 -6 -10 -10 -10 -16 -1 -6 9 -10 9 -16 -1 -6 -10 -9 -11 -9 -1 0 6 -7 12 -15 12 -12 0 -13 -4 -3 -25z"/> <path d="M1490 315 c0 -26 15 -34 23 -12 4 10 6 10 6 0 2 -24 21 -13 21 12 0 26 -15 34 -23 13 -4 -10 -6 -10 -6 0 -2 23 -21 12 -21 -13z"/> <path d="M1550 315 c0 -19 5 -25 23 -25 16 0 18 3 9 9 -8 4 -14 12 -14 16 0 4 6 12 14 16 9 6 7 9 -9 9 -18 0 -23 -6 -23 -25z"/> <path d="M1600 313 c0 -22 2 -25 10 -13 6 10 10 11 10 3 0 -24 15 -13 16 12 2 18 -3 25 -17 25 -14 0 -19 -7 -19 -27z"/> <path d="M1650 315 c0 -19 5 -25 23 -24 21 0 21 1 2 9 -11 5 -14 9 -7 9 7 1 11 5 8 10 -4 5 0 12 6 14 7 3 3 6 -9 6 -18 1 -23 -5 -23 -24z"/> <path d="M1720 315 c0 -22 19 -38 21 -17 0 4 2 15 4 25 2 9 -3 17 -11 17 -8 0 -14 -10 -14 -25z"/> <path d="M1761 314 c-10 -23 -9 -26 4 -20 8 3 26 1 40 -4 15 -6 27 -6 30 0 3 5 12 7 20 3 8 -3 15 0 15 6 0 6 5 11 11 11 5 0 7 -4 4 -10 -3 -5 -1 -10 4 -10 6 0 11 11 11 25 0 26 -15 34 -23 13 -4 -10 -6 -10 -6 0 -1 6 -5 12 -10 12 -5 0 -7 -10 -3 -22 5 -20 4 -21 -11 -9 -9 7 -14 17 -11 22 3 5 -2 9 -10 9 -19 0 -21 -11 -4 -28 9 -9 8 -12 -4 -12 -9 0 -20 9 -23 20 -9 27 -19 25 -34 -6z"/> <path d="M1943 324 c-3 -8 1 -22 9 -30 12 -12 17 -12 33 -1 23 17 14 47 -15 47 -11 0 -23 -7 -27 -16z"/> <path d="M2010 313 c0 -22 2 -25 10 -13 6 10 10 11 10 3 0 -7 6 -13 13 -13 6 0 12 11 12 25 0 27 -10 33 -18 13 -4 -10 -6 -10 -6 0 -2 25 -21 11 -21 -15z"/> <path d="M2090 313 c0 -17 3 -23 8 -16 5 8 13 9 22 3 24 -15 30 -12 30 15 0 27 -9 32 -28 13 -9 -9 -12 -9 -12 0 0 7 -4 12 -10 12 -5 0 -10 -12 -10 -27z"/> <path d="M2160 315 c0 -19 5 -25 23 -25 16 0 18 3 9 9 -8 4 -14 12 -14 16 0 4 6 12 14 16 9 6 7 9 -9 9 -18 0 -23 -6 -23 -25z"/> <path d="M2210 315 c0 -19 5 -25 23 -25 12 0 18 4 12 8 -18 13 -15 32 6 32 16 0 19 -4 14 -20 -3 -11 -2 -20 3 -20 5 0 12 11 14 25 5 23 2 25 -33 25 -35 0 -39 -3 -39 -25z"/> <path d="M2300 331 c0 -6 5 -13 11 -17 8 -5 8 -9 -1 -14 -7 -4 -8 -10 -3 -13 5 -3 15 -2 23 3 11 7 11 11 1 23 -9 12 -9 16 1 20 7 3 3 6 -9 6 -13 1 -23 -3 -23 -8z"/> <path d="M2366 334 c7 -3 10 -14 7 -24 -3 -11 0 -20 6 -20 6 0 11 9 11 20 0 11 7 20 16 20 10 0 13 -6 9 -19 -5 -16 0 -18 45 -18 47 0 50 1 44 21 -4 11 -8 23 -10 25 -6 7 -24 -11 -24 -25 0 -8 -5 -14 -10 -14 -6 0 -10 8 -8 18 2 14 -6 17 -47 19 -27 1 -45 0 -39 -3z"/> <path d="M2520 315 c0 -22 4 -26 23 -23 14 2 22 10 22 23 0 13 -8 21 -22 23 -19 3 -23 -1 -23 -23z"/> <path d="M2580 315 c0 -14 5 -25 10 -25 6 0 10 9 10 20 0 11 5 20 11 20 6 0 9 -9 6 -20 -3 -12 0 -20 8 -20 8 0 11 8 8 20 -3 11 0 20 6 20 6 0 11 -9 11 -20 0 -11 5 -20 10 -20 6 0 10 11 10 25 0 23 -4 25 -45 25 -41 0 -45 -2 -45 -25z"/> <path d="M2684 325 c-4 -9 -2 -21 4 -27 16 -16 47 -5 47 17 0 26 -42 34 -51 10z"/> <path d="M2750 313 c0 -22 2 -25 10 -13 6 10 10 11 10 3 0 -24 25 -13 26 12 2 26 -11 34 -19 13 -4 -10 -6 -10 -6 0 -2 25 -21 11 -21 -15z"/> <path d="M1085 311 c-3 -5 7 -12 22 -14 16 -2 11 -3 -9 -2 -49 4 -57 -9 -17 -26 28 -11 36 -10 75 11 24 12 44 27 44 31 0 12 -107 11 -115 0z"/> <path d="M1154 245 c-5 -11 -11 -12 -26 -4 -10 6 -27 8 -36 6 -15 -4 -14 -5 2 -6 10 0 31 -12 48 -26 34 -29 50 -31 67 -11 9 11 10 20 1 35 -12 24 -48 28 -56 6z m44 -18 c4 -19 -32 -25 -43 -7 -3 6 -1 10 5 10 6 0 8 5 4 11 -4 7 1 10 12 7 10 -2 20 -11 22 -21z"/> </g> </svg>